<svg width="400" height="400" viewBox="0 0 400 400" fill="none" xmlns="http://www.w3.org/2000/svg">
<path d="M163.48 265.165L215.747 233.998C215.747 233.998 390.515 309.799 346.749 364.495C334.444 379.874 296.702 408.246 302.642 396.359C308.583 384.473 163.48 265.165 163.48 265.165Z" fill="#E0C9A6"/>
<path d="M94.167 96.1509C81.8651 33.705 359.186 72.4665 371.448 140.935C383.71 209.404 114.239 306.73 107.077 233.3C103.108 192.607 252.134 186.682 246.073 152.08C240.012 117.477 106.469 158.597 94.167 96.1509Z" fill="#5C6174"/>
<path d="M85.6535 82.7251C69.6842 65.3093 153.886 65.3093 153.886 65.3093C153.886 65.3093 226.115 322.479 145.504 362.991C122.839 374.381 69.1138 382.691 83.8043 370.871C98.4948 359.051 101.623 100.141 85.6535 82.7251Z" fill="#5C6174"/>
</svg>
